# xmcd
#
# Track frame offsets:
#	150
#	11906
#	28992
#	40222
#	71517
#	84817
#	105434
#	114421
#	135837
#	149634
#	162116
#	177918
#	186938
#	197655
#	209015
#	235070
#	247977
#	269267
#	293481
#	312424
#
# Disc length: 4478 seconds
#
# Revision: 0
# Processed by: cddbd v1.5.2PL0 Copyright (c) Steve Scherf et al.
# Submitted via: EasyCDDAExtractor 10.0.3.1
#
DISCID=18117c14
DTITLE=Middle East Music - A Window On the World
DYEAR=2002
DGENRE=World
TTITLE0=Samri
TTITLE1=Singing of Sanaa
TTITLE2=Bedouin Song
TTITLE3=Maqam of Bagdad
TTITLE4=Maqam Hijaz
TTITLE5=Maqam Al Asil
TTITLE6=Al Naqa
TTITLE7=Ali Akbar Moradi - Tanbur
TTITLE8=Matar Muhammad - Buzuq
TTITLE9=Sabri Mudallal - Wasla Nahawand
TTITLE10=Muhammad Qadri Dalal - Maqam Nawa
TTITLE11=Syrian Ortodox Church
TTITLE12=Sufi - Ushshaq Ilahi
TTITLE13=Ashik
TTITLE14=Mugam Rast
TTITLE15=Mugam Segah Zabol
TTITLE16=Mugam Kharej Segah
TTITLE17=Karabagh Shekastesi
TTITLE18=Mugam Chopan Bayati
TTITLE19=Mugam Shur
EXTD=
EXTT0=
EXTT1=
EXTT2=
EXTT3=
EXTT4=
EXTT5=
EXTT6=
EXTT7=
EXTT8=
EXTT9=
EXTT10=
EXTT11=
EXTT12=
EXTT13=
EXTT14=
EXTT15=
EXTT16=
EXTT17=
EXTT18=
EXTT19=
PLAYORDER=
